<mxfile host="65bd71144e">
    <diagram id="QO8zTXh8MmwBbY8q714F" name="ページ1">
        <mxGraphModel dx="675" dy="563" grid="1" gridSize="10" guides="1" tooltips="1" connect="1" arrows="1" fold="1" page="1" pageScale="1" pageWidth="4681" pageHeight="3300" math="0" shadow="0">
            <root>
                <mxCell id="0"/>
                <mxCell id="1" parent="0"/>
                <mxCell id="1mVnNg7vztShOF0JRuJz-1" value="1. 全体構成" style="text;html=1;strokeColor=none;fillColor=none;align=left;verticalAlign=middle;whiteSpace=wrap;rounded=0;fontSize=35;" parent="1" vertex="1">
                    <mxGeometry x="80" y="80" width="200" height="40" as="geometry"/>
                </mxCell>
                <mxCell id="1mVnNg7vztShOF0JRuJz-2" value="common&lt;br style=&quot;font-size: 16px&quot;&gt;&lt;br style=&quot;font-size: 16px&quot;&gt;汎用的な共通部品。&lt;br&gt;・エラー処理&lt;br&gt;・環境変数&lt;br&gt;・ログ出力&lt;br&gt;…" style="rounded=0;whiteSpace=wrap;html=1;fontSize=16;align=left;horizontal=1;verticalAlign=top;spacingLeft=5;" parent="1" vertex="1">
                    <mxGeometry x="600" y="160" width="160" height="280" as="geometry"/>
                </mxCell>
                <mxCell id="1mVnNg7vztShOF0JRuJz-5" style="edgeStyle=orthogonalEdgeStyle;rounded=0;orthogonalLoop=1;jettySize=auto;html=1;exitX=1;exitY=0.5;exitDx=0;exitDy=0;entryX=0;entryY=0.25;entryDx=0;entryDy=0;fontSize=20;" parent="1" source="1mVnNg7vztShOF0JRuJz-3" target="1mVnNg7vztShOF0JRuJz-2" edge="1">
                    <mxGeometry relative="1" as="geometry"/>
                </mxCell>
                <mxCell id="1mVnNg7vztShOF0JRuJz-25" style="edgeStyle=orthogonalEdgeStyle;rounded=0;orthogonalLoop=1;jettySize=auto;html=1;exitX=0.25;exitY=1;exitDx=0;exitDy=0;entryX=0.25;entryY=0;entryDx=0;entryDy=0;fontSize=30;fontColor=#000000;" parent="1" source="1mVnNg7vztShOF0JRuJz-3" target="1mVnNg7vztShOF0JRuJz-4" edge="1">
                    <mxGeometry relative="1" as="geometry"/>
                </mxCell>
                <mxCell id="1mVnNg7vztShOF0JRuJz-3" value="lib&lt;br&gt;&lt;br&gt;システムで利用する外部要因（製品やシステム）とのI/F。domainとの役割分担は、下記の通り。&lt;br&gt;　・ロジックはできるだけdomainに持たせる&lt;br&gt;　・libのI/Fはdomainで定義する型" style="rounded=0;whiteSpace=wrap;html=1;fontSize=16;align=left;horizontal=1;verticalAlign=top;spacingLeft=5;" parent="1" vertex="1">
                    <mxGeometry x="160" y="160" width="360" height="160" as="geometry"/>
                </mxCell>
                <mxCell id="1mVnNg7vztShOF0JRuJz-7" style="edgeStyle=orthogonalEdgeStyle;rounded=0;orthogonalLoop=1;jettySize=auto;html=1;exitX=1;exitY=0.5;exitDx=0;exitDy=0;entryX=0;entryY=0.75;entryDx=0;entryDy=0;fontSize=20;" parent="1" source="1mVnNg7vztShOF0JRuJz-4" target="1mVnNg7vztShOF0JRuJz-2" edge="1">
                    <mxGeometry relative="1" as="geometry"/>
                </mxCell>
                <mxCell id="1mVnNg7vztShOF0JRuJz-27" style="edgeStyle=orthogonalEdgeStyle;rounded=0;orthogonalLoop=1;jettySize=auto;html=1;exitX=0.75;exitY=0;exitDx=0;exitDy=0;entryX=0.75;entryY=1;entryDx=0;entryDy=0;fontSize=30;fontColor=#000000;" parent="1" source="1mVnNg7vztShOF0JRuJz-4" target="1mVnNg7vztShOF0JRuJz-3" edge="1">
                    <mxGeometry relative="1" as="geometry"/>
                </mxCell>
                <mxCell id="1mVnNg7vztShOF0JRuJz-4" value="domain&lt;br&gt;&lt;br&gt;本システムのロジック。" style="rounded=0;whiteSpace=wrap;html=1;fontSize=16;align=left;horizontal=1;verticalAlign=top;spacingLeft=5;" parent="1" vertex="1">
                    <mxGeometry x="160" y="360" width="360" height="80" as="geometry"/>
                </mxCell>
                <mxCell id="1mVnNg7vztShOF0JRuJz-9" value="type-depend" style="text;html=1;strokeColor=none;fillColor=none;align=center;verticalAlign=middle;whiteSpace=wrap;rounded=0;fontSize=16;fontColor=#3333FF;" parent="1" vertex="1">
                    <mxGeometry x="140" y="330" width="110" height="20" as="geometry"/>
                </mxCell>
                <mxCell id="1mVnNg7vztShOF0JRuJz-10" value="call&lt;br&gt;function" style="text;html=1;strokeColor=none;fillColor=none;align=center;verticalAlign=middle;whiteSpace=wrap;rounded=0;fontSize=16;fontColor=#3333FF;" parent="1" vertex="1">
                    <mxGeometry x="530" y="250" width="60" height="40" as="geometry"/>
                </mxCell>
                <mxCell id="1mVnNg7vztShOF0JRuJz-15" value="※補足：&lt;br style=&quot;font-size: 8px;&quot;&gt;例えばAPIで外部システムとやり取りする場合、そのAPIの戻り値を加工してdomain typeに変換するまでがlibの役割。" style="text;html=1;strokeColor=none;fillColor=none;align=left;verticalAlign=middle;whiteSpace=wrap;rounded=0;fontSize=8;spacing=0;" parent="1" vertex="1">
                    <mxGeometry x="280" y="285" width="230" height="30" as="geometry"/>
                </mxCell>
                <mxCell id="1mVnNg7vztShOF0JRuJz-16" value="2. domain" style="text;html=1;strokeColor=none;fillColor=none;align=left;verticalAlign=middle;whiteSpace=wrap;rounded=0;fontSize=35;" parent="1" vertex="1">
                    <mxGeometry x="80" y="480" width="200" height="40" as="geometry"/>
                </mxCell>
                <mxCell id="1mVnNg7vztShOF0JRuJz-19" value="Strategy&lt;br&gt;　投資戦略" style="rounded=0;whiteSpace=wrap;html=1;fontSize=12;align=left;horizontal=1;verticalAlign=top;spacingLeft=5;" parent="1" vertex="1">
                    <mxGeometry x="800" y="760" width="160" height="80" as="geometry"/>
                </mxCell>
                <mxCell id="eRI5a-6kX-gSEgQ2M_Sd-6" style="edgeStyle=orthogonalEdgeStyle;rounded=0;orthogonalLoop=1;jettySize=auto;html=1;exitX=1;exitY=0.5;exitDx=0;exitDy=0;entryX=0;entryY=0.5;entryDx=0;entryDy=0;" parent="1" source="1mVnNg7vztShOF0JRuJz-20" target="1mVnNg7vztShOF0JRuJz-19" edge="1">
                    <mxGeometry relative="1" as="geometry"/>
                </mxCell>
                <mxCell id="eRI5a-6kX-gSEgQ2M_Sd-9" style="edgeStyle=orthogonalEdgeStyle;rounded=0;orthogonalLoop=1;jettySize=auto;html=1;exitX=0;exitY=0.25;exitDx=0;exitDy=0;entryX=1;entryY=0.5;entryDx=0;entryDy=0;" parent="1" source="1mVnNg7vztShOF0JRuJz-20" target="1mVnNg7vztShOF0JRuJz-23" edge="1">
                    <mxGeometry relative="1" as="geometry"/>
                </mxCell>
                <mxCell id="1mVnNg7vztShOF0JRuJz-20" value="StrategyBox&lt;br style=&quot;font-size: 12px;&quot;&gt;&amp;nbsp; Strategyを運用する" style="rounded=0;whiteSpace=wrap;html=1;fontSize=12;align=left;horizontal=1;verticalAlign=top;spacingLeft=5;" parent="1" vertex="1">
                    <mxGeometry x="580" y="760" width="160" height="80" as="geometry"/>
                </mxCell>
                <mxCell id="eRI5a-6kX-gSEgQ2M_Sd-5" style="edgeStyle=orthogonalEdgeStyle;rounded=0;orthogonalLoop=1;jettySize=auto;html=1;exitX=0.75;exitY=0;exitDx=0;exitDy=0;entryX=0.75;entryY=1;entryDx=0;entryDy=0;" parent="1" source="1mVnNg7vztShOF0JRuJz-21" target="1mVnNg7vztShOF0JRuJz-20" edge="1">
                    <mxGeometry relative="1" as="geometry"/>
                </mxCell>
                <mxCell id="eRI5a-6kX-gSEgQ2M_Sd-7" style="edgeStyle=orthogonalEdgeStyle;rounded=0;orthogonalLoop=1;jettySize=auto;html=1;exitX=0;exitY=0.5;exitDx=0;exitDy=0;entryX=0.5;entryY=1;entryDx=0;entryDy=0;" parent="1" source="1mVnNg7vztShOF0JRuJz-21" target="2" edge="1">
                    <mxGeometry relative="1" as="geometry"/>
                </mxCell>
                <mxCell id="1mVnNg7vztShOF0JRuJz-21" value="StrategyBoxContainer&lt;br&gt;　StrategyBoxの初期化&lt;br&gt;　StrategyBoxの追加/更新/削除&lt;br&gt;　StrategyBoxの死活監視" style="rounded=0;whiteSpace=wrap;html=1;fontSize=12;align=left;horizontal=1;verticalAlign=top;spacingLeft=5;" parent="1" vertex="1">
                    <mxGeometry x="560" y="920" width="200" height="80" as="geometry"/>
                </mxCell>
                <mxCell id="1mVnNg7vztShOF0JRuJz-22" value="MarketCache&lt;br&gt;　価格情報をキャッシュ" style="rounded=0;whiteSpace=wrap;html=1;fontSize=12;align=left;horizontal=1;verticalAlign=top;spacingLeft=5;" parent="1" vertex="1">
                    <mxGeometry x="320" y="840" width="160" height="80" as="geometry"/>
                </mxCell>
                <mxCell id="eRI5a-6kX-gSEgQ2M_Sd-14" style="edgeStyle=orthogonalEdgeStyle;rounded=0;orthogonalLoop=1;jettySize=auto;html=1;exitX=0.5;exitY=0;exitDx=0;exitDy=0;entryX=0.5;entryY=1;entryDx=0;entryDy=0;fontSize=12;" parent="1" source="1mVnNg7vztShOF0JRuJz-23" target="eRI5a-6kX-gSEgQ2M_Sd-13" edge="1">
                    <mxGeometry relative="1" as="geometry"/>
                </mxCell>
                <mxCell id="1mVnNg7vztShOF0JRuJz-23" value="TradeManager&lt;br&gt;　取引を管理する" style="rounded=0;whiteSpace=wrap;html=1;fontSize=12;align=left;horizontal=1;verticalAlign=top;spacingLeft=5;" parent="1" vertex="1">
                    <mxGeometry x="320" y="680" width="160" height="80" as="geometry"/>
                </mxCell>
                <mxCell id="eRI5a-6kX-gSEgQ2M_Sd-10" style="edgeStyle=orthogonalEdgeStyle;rounded=0;orthogonalLoop=1;jettySize=auto;html=1;exitX=1;exitY=0.5;exitDx=0;exitDy=0;entryX=0;entryY=0.5;entryDx=0;entryDy=0;" parent="1" source="1mVnNg7vztShOF0JRuJz-24" target="1mVnNg7vztShOF0JRuJz-23" edge="1">
                    <mxGeometry relative="1" as="geometry"/>
                </mxCell>
                <mxCell id="1mVnNg7vztShOF0JRuJz-24" value="ExecutionMonitor&lt;br&gt;　約定したか監視する" style="rounded=0;whiteSpace=wrap;html=1;fontSize=12;align=left;horizontal=1;verticalAlign=top;spacingLeft=5;" parent="1" vertex="1">
                    <mxGeometry x="80" y="680" width="160" height="80" as="geometry"/>
                </mxCell>
                <mxCell id="1mVnNg7vztShOF0JRuJz-28" value="call function" style="text;html=1;strokeColor=none;fillColor=none;align=center;verticalAlign=middle;whiteSpace=wrap;rounded=0;fontSize=16;fontColor=#3333FF;" parent="1" vertex="1">
                    <mxGeometry x="320" y="330" width="110" height="20" as="geometry"/>
                </mxCell>
                <mxCell id="eRI5a-6kX-gSEgQ2M_Sd-1" value="call&lt;br&gt;function" style="text;html=1;strokeColor=none;fillColor=none;align=center;verticalAlign=middle;whiteSpace=wrap;rounded=0;fontSize=16;fontColor=#3333FF;" parent="1" vertex="1">
                    <mxGeometry x="525" y="150" width="70" height="40" as="geometry"/>
                </mxCell>
                <mxCell id="eRI5a-6kX-gSEgQ2M_Sd-2" style="edgeStyle=orthogonalEdgeStyle;rounded=0;orthogonalLoop=1;jettySize=auto;html=1;exitX=-0.011;exitY=0.142;exitDx=0;exitDy=0;entryX=1;entryY=0.25;entryDx=0;entryDy=0;fontSize=30;fontColor=#000000;exitPerimeter=0;" parent="1" source="1mVnNg7vztShOF0JRuJz-2" target="1mVnNg7vztShOF0JRuJz-3" edge="1">
                    <mxGeometry relative="1" as="geometry">
                        <mxPoint x="570" y="190" as="sourcePoint"/>
                        <mxPoint x="570" y="230" as="targetPoint"/>
                    </mxGeometry>
                </mxCell>
                <mxCell id="eRI5a-6kX-gSEgQ2M_Sd-3" value="call&lt;br&gt;function" style="text;html=1;strokeColor=none;fillColor=none;align=center;verticalAlign=middle;whiteSpace=wrap;rounded=0;fontSize=16;fontColor=#3333FF;" parent="1" vertex="1">
                    <mxGeometry x="530" y="320" width="60" height="40" as="geometry"/>
                </mxCell>
                <mxCell id="eRI5a-6kX-gSEgQ2M_Sd-13" value="TradeCache&lt;br&gt;　取引について、DBデータをキャッシュする" style="rounded=0;whiteSpace=wrap;html=1;fontSize=12;align=left;horizontal=1;verticalAlign=top;spacingLeft=5;" parent="1" vertex="1">
                    <mxGeometry x="320" y="560" width="160" height="80" as="geometry"/>
                </mxCell>
                <mxCell id="3" style="edgeStyle=none;html=1;entryX=0;entryY=0.5;entryDx=0;entryDy=0;" edge="1" parent="1" source="2" target="1mVnNg7vztShOF0JRuJz-22">
                    <mxGeometry relative="1" as="geometry"/>
                </mxCell>
                <mxCell id="2" value="MarketMonitor&lt;br&gt;　市場の価格情報を定期監視する" style="rounded=0;whiteSpace=wrap;html=1;fontSize=12;align=left;horizontal=1;verticalAlign=top;spacingLeft=5;" vertex="1" parent="1">
                    <mxGeometry x="80" y="840" width="160" height="80" as="geometry"/>
                </mxCell>
                <mxCell id="11" style="edgeStyle=orthogonalEdgeStyle;rounded=0;orthogonalLoop=1;jettySize=auto;html=1;exitX=0;exitY=0.75;exitDx=0;exitDy=0;entryX=1;entryY=0.5;entryDx=0;entryDy=0;" edge="1" parent="1" source="1mVnNg7vztShOF0JRuJz-20" target="1mVnNg7vztShOF0JRuJz-22">
                    <mxGeometry relative="1" as="geometry">
                        <mxPoint x="590" y="790" as="sourcePoint"/>
                        <mxPoint x="490" y="730" as="targetPoint"/>
                    </mxGeometry>
                </mxCell>
            </root>
        </mxGraphModel>
    </diagram>
</mxfile>